<?xml version="1.0" encoding="iso-8859-1"?><!DOCTYPE svg PUBLIC "-//W3C//DTD SVG 1.1//EN" "http://www.w3.org/Graphics/SVG/1.1/DTD/svg11.dtd"><svg width="84" height="776" viewBox="0 0 84 776" xmlns="http://www.w3.org/2000/svg" xmlns:xlink="http://www.w3.org/1999/xlink"><svg width="84" height="84" viewBox="-52.36 -52.36 439.79 439.79" id="src--images--raw-svgs--books8"><path d="M311.175 115.775c-1.355-10.186-1.546-27.73 7.915-33.62.17-.11.295-.265.443-.4 7.735-2.473 13.088-5.945 8.886-10.617l-114.103-34.38L29.56 62.445S8.403 65.47 10.293 98.34c1.026 17.89 6.637 26.675 11.544 31l-15.16 4.568c-4.21 4.672 1.143 8.145 8.88 10.615.146.138.27.293.442.4 9.454 5.897 9.272 23.44 7.912 33.627-33.967 9.645-21.774 12.788-21.774 12.788l7.45 1.803C4.35 197.878-.856 206.86.12 223.89c1.89 32.865 19.27 35.133 19.27 35.133L140.29 298.32l182.49-44.2s12.198-3.15-21.778-12.795c-1.366-10.172-1.556-27.712 7.92-33.623.175-.105.302-.264.443-.396 7.736-2.474 13.084-5.943 8.88-10.615l-7.93-2.394c5.29-3.19 13.235-11.527 14.48-33.183.86-14.896-3.027-23.62-7.525-28.756l15.678-3.794c0 .006 12.198-3.142-21.773-12.788zm-152.642-.42l30.688-6.308 103.71-21.312 15.45-3.178c-4.937 9.036-4.73 21.402-3.913 29.35.18 1.798.385 3.44.585 4.688L288.14 122.8l-130.897 32.563 1.29-40.01zM26.71 147.336l15.45 3.178 99.596 20.474 8.7 1.78 26.094 5.364 1.287 40.01-134.534-33.47-13.263-3.297c.195-1.25.4-2.89.588-4.693.812-7.942 1.023-20.31-3.918-29.347zm-6.002-50.58c-.187-8.743 1.37-15.066 4.52-18.28 2.004-2.052 4.37-2.48 5.99-2.48.858 0 1.475.12 1.517.12l79.607 25.953 39.717 12.95-1.304 40.288L39.334 124.07l-5.88-1.647c-.216-.06-.51-.103-.735-.113-.46-.033-11.476-1.047-12.012-25.553zm119.87 184.11L23.28 247.98c-.217-.063-.507-.105-.733-.116-.467-.03-11.488-1.044-12.02-25.544-.19-8.754 1.375-15.07 4.518-18.288 2.01-2.052 4.375-2.48 5.994-2.48.858 0 1.473.116 1.518.116 0 0 .005 0 0 0l119.316 38.908-1.295 40.29zm153.706-41.408c.185 1.803.39 3.442.59 4.692l-147.81 36.77 1.29-40.01 31.602-6.496 4.667 1.13 17.492-5.686 80.63-16.57 15.458-3.18c-4.942 9.036-4.737 21.407-3.92 29.35zm8.142-54.376c-.27.006-.538.042-.79.122l-11.15 3.12-106.147 29.765-1.3-40.288 34.827-11.36 84.327-27.5c.01-.005 4.436-.988 7.684 2.315 3.144 3.214 4.704 9.537 4.52 18.28-.55 24.498-11.57 25.516-11.972 25.547z"/></svg><svg width="84" height="84" viewBox="-14.06 -14.06 118.13 118.13" id="src--images--raw-svgs--facebook29" y="84"><path d="M90 15c0-7.88-7.116-15-15-15H15C7.116 0 0 7.12 0 15v60c0 7.88 7.116 15 15 15h30V56H34V41h11v-5.844C45 25.076 52.568 16 61.875 16H74v15H61.875C60.548 31 59 32.61 59 35.024V41h15v15H59v34h16c7.884 0 15-7.12 15-15V15z"/></svg><svg width="69.65" height="69.65" viewBox="-10 -10 69.65 69.65" id="src--images--raw-svgs--instagram19" y="168"><path d="M24.825 29.796c2.74 0 4.972-2.23 4.972-4.97 0-1.082-.354-2.08-.94-2.897-.903-1.253-2.37-2.074-4.03-2.074-1.658 0-3.125.82-4.03 2.072-.588.816-.94 1.815-.94 2.897-.003 2.74 2.228 4.97 4.968 4.97zM35.678 18.746V13.96l-.623.002-4.164.013.017 4.787"/><path d="M24.826 0C11.136 0 0 11.137 0 24.826c0 13.688 11.137 24.826 24.826 24.826 13.688 0 24.826-11.138 24.826-24.826C49.652 11.136 38.516 0 24.826 0zm14.12 21.93v11.56c0 3.01-2.45 5.457-5.458 5.457H16.164c-3.01 0-5.457-2.447-5.457-5.458V16.164c0-3.01 2.447-5.457 5.457-5.457h17.323c3.01 0 5.458 2.447 5.458 5.457v5.764z"/><path d="M32.55 24.826c0 4.257-3.465 7.723-7.724 7.723-4.26 0-7.722-3.467-7.722-7.724 0-1.024.204-2.003.568-2.897h-4.215v11.56c0 1.493 1.213 2.703 2.706 2.703h17.323c1.49 0 2.706-1.21 2.706-2.704V21.93h-4.217c.367.893.574 1.872.574 2.896z"/></svg><svg viewBox="-10 -10 47.44 47.44" width="47.44" height="47.44" id="src--images--raw-svgs--iphone26" y="238"><path d="M19.494 0H7.948C6.843 0 5.95.896 5.95 2v23.445c0 1.102.893 1.997 1.998 1.997h11.546c1.103 0 1.997-.895 1.997-1.997V2c0-1.104-.893-2-1.996-2zm-8.622 1.214h5.7c.144 0 .26.215.26.48s-.116.483-.26.483h-5.7c-.145 0-.26-.216-.26-.482s.115-.48.26-.48zm2.85 24.255c-.703 0-1.275-.573-1.275-1.277s.572-1.274 1.275-1.274c.7 0 1.273.57 1.273 1.273s-.572 1.276-1.273 1.276zm6.273-4.37H7.448V3.373h12.547V21.1z"/></svg><svg width="84" height="84" viewBox="-12.52 -12.52 105.17 105.17" id="src--images--raw-svgs--multiple25" y="286"><path d="M48.355 17.922c3.705 2.323 6.303 6.254 6.776 10.817 1.512.705 3.19 1.11 4.967 1.11 6.49 0 11.752-5.26 11.752-11.75S66.587 6.348 60.096 6.348c-6.43.002-11.644 5.17-11.742 11.574zm-7.7 24.062c6.492 0 11.753-5.262 11.753-11.752s-5.262-11.75-11.752-11.75c-6.49 0-11.754 5.26-11.754 11.75s5.264 11.752 11.754 11.752zm4.986.8h-9.97c-8.298 0-15.048 6.752-15.048 15.05v12.194l.03.19.84.264c7.92 2.474 14.798 3.3 20.46 3.3 11.06 0 17.47-3.154 17.864-3.355l.785-.397h.085V57.833c.003-8.297-6.747-15.048-15.044-15.048zm19.444-12.13H55.19c-.108 3.958-1.798 7.523-4.47 10.087 7.374 2.194 12.77 9.033 12.77 17.11v3.76c9.77-.36 15.4-3.128 15.77-3.314l.786-.398h.084v-12.2c0-8.295-6.75-15.045-15.046-15.045zm-45.05-.8c2.3 0 4.44-.672 6.25-1.815.577-3.758 2.59-7.04 5.468-9.277.012-.22.033-.438.033-.66 0-6.49-5.262-11.752-11.75-11.752-6.492 0-11.752 5.262-11.752 11.753 0 6.488 5.26 11.75 11.752 11.75zM30.59 40.74c-2.66-2.55-4.345-6.096-4.468-10.03-.367-.028-.73-.057-1.104-.057h-9.97C6.75 30.653 0 37.403 0 45.7v12.196l.03.188.84.265c6.353 1.982 12.022 2.896 16.946 3.184V57.85c.002-8.077 5.396-14.914 12.773-17.11z"/></svg><svg width="84" height="84" viewBox="-145.65 -145.65 1223.48 1223.48" id="src--images--raw-svgs--settings48" y="370"><path d="M61.2 341.538c4.9 16.8 11.7 33 20.3 48.2l-24.5 30.9c-8 10.1-7.1 24.5 1.9 33.6l42.2 42.2c9.1 9.1 23.5 9.9 33.6 1.9l30.7-24.3c15.8 9.1 32.6 16.2 50.1 21.2l4.6 39.5c1.5 12.8 12.3 22.4 25.1 22.4h59.7c12.8 0 23.6-9.602 25.1-22.4l4.4-38.1c18.8-4.9 36.8-12.2 53.7-21.7l29.7 23.5c10.1 8 24.5 7.1 33.6-1.9l42.2-42.2c9.1-9.1 9.9-23.5 1.9-33.6l-23.1-29.3c9.6-16.602 17.1-34.3 22.1-52.8l35.6-4.1c12.8-1.5 22.4-12.3 22.4-25.1v-59.7c0-12.8-9.6-23.6-22.4-25.1l-35.1-4.1c-4.8-18.3-12-35.8-21.2-52.2l21.6-27.3c8-10.1 7.1-24.5-1.9-33.6l-42.1-42.1c-9.1-9.1-23.5-9.9-33.6-1.9l-26.5 21c-17.2-10.1-35.6-17.8-54.9-23l-4-34.3c-1.5-12.8-12.3-22.4-25.1-22.4h-59.7c-12.8 0-23.6 9.6-25.1 22.4l-4 34.3c-19.8 5.3-38.7 13.3-56.3 23.8l-27.5-21.8c-10.1-8-24.5-7.1-33.6 1.9l-42.2 42.2c-9.1 9.1-9.9 23.5-1.9 33.6l23 29.1c-9.2 16.6-16.2 34.3-20.8 52.7l-36.8 4.2c-12.8 1.5-22.4 12.3-22.4 25.1v59.7c0 12.8 9.6 23.6 22.4 25.1l38.8 4.5zm216.3-161.5c54.4 0 98.7 44.3 98.7 98.7s-44.3 98.7-98.7 98.7c-54.4 0-98.7-44.3-98.7-98.7s44.3-98.7 98.7-98.7z"/><path d="M867.7 356.238l-31.5-26.6c-9.7-8.2-24-7.8-33.2.9l-17.4 16.3c-14.7-7.1-30.3-12.1-46.4-15l-4.898-24c-2.5-12.4-14-21-26.602-20l-41.1 3.5c-12.6 1.1-22.5 11.4-22.9 24.1l-.8 24.4c-15.8 5.7-30.7 13.5-44.3 23.3l-20.8-13.8c-10.6-7-24.7-5-32.9 4.7l-26.6 31.7c-8.2 9.7-7.8 24 .9 33.2l18.2 19.4c-6.3 14.2-10.8 29.1-13.4 44.4l-26 5.3c-12.4 2.5-21 14-20 26.6l3.5 41.1c1.1 12.6 11.4 22.5 24.1 22.9l28.1.9c5.102 13.4 11.8 26.1 19.9 38l-15.7 23.7c-7 10.6-5 24.7 4.7 32.9l31.5 26.6c9.7 8.2 24 7.8 33.2-.9l20.6-19.3c13.5 6.3 27.7 11 42.3 13.8l5.7 28.2c2.5 12.4 14 21 26.6 20l41.1-3.5c12.6-1.1 22.5-11.4 22.9-24.1l.9-27.602c15-5.3 29.2-12.5 42.3-21.4l22.7 15c10.6 7 24.7 5 32.9-4.7l26.6-31.5c8.2-9.7 7.8-24-.9-33.2l-18.3-19.398c6.7-14.2 11.602-29.2 14.4-44.6l25-5.1c12.4-2.5 21-14 20-26.602l-3.5-41.1c-1.1-12.6-11.4-22.5-24.1-22.9l-25.1-.8c-5.2-14.6-12.2-28.4-20.9-41.2l13.7-20.6c7.2-10.598 5.2-24.798-4.5-32.998zm-154.9 237.6c-44.4 3.8-83.6-29.3-87.3-73.7-3.8-44.4 29.3-83.6 73.7-87.3 44.4-3.8 83.6 29.3 87.3 73.7 3.8 44.4-29.3 83.6-73.7 87.3zM205 704.438c-12.6 1.3-22.3 11.9-22.4 24.6l-.3 25.3c-.2 12.7 9.2 23.5 21.8 25.1l18.6 2.4c3.1 11.3 7.5 22.1 13.2 32.3l-12 14.8c-8 9.9-7.4 24.1 1.5 33.2l17.7 18.1c8.9 9.1 23.1 10.1 33.2 2.3l14.9-11.5c10.5 6.2 21.6 11.102 33.2 14.5l2 19.2c1.3 12.6 11.9 22.3 24.6 22.4l25.3.3c12.7.2 23.5-9.2 25.1-21.8l2.3-18.2c12.6-3.1 24.6-7.8 36-14l14 11.3c9.9 8 24.1 7.4 33.2-1.5l18.1-17.7c9.1-8.898 10.1-23.1 2.302-33.2l-10.702-13.9c6.6-11 11.7-22.7 15.2-35l16.6-1.7c12.6-1.3 22.3-11.9 22.4-24.6l.3-25.3c.2-12.7-9.2-23.5-21.8-25.1l-16.2-2.1c-3.1-12.2-7.7-24-13.7-35l10.1-12.4c8-9.9 7.4-24.1-1.5-33.2l-17.698-18.1c-8.9-9.102-23.102-10.102-33.2-2.3l-12.102 9.3c-11.4-6.9-23.6-12.2-36.4-15.8l-1.6-15.7c-1.3-12.602-11.9-22.3-24.6-22.4l-25.3-.3c-12.7-.2-23.5 9.2-25.1 21.8l-2 15.6c-13.2 3.4-25.9 8.6-37.7 15.4l-12.5-10.2c-9.9-8-24.1-7.4-33.2 1.5l-18.2 17.8c-9.1 8.9-10.1 23.1-2.3 33.2l10.7 13.8c-6.2 11-11.1 22.7-14.3 35l-17.5 1.8zm163.3-28.6c36.3.4 65.4 30.3 65 66.6-.4 36.3-30.3 65.4-66.6 65-36.3-.4-65.4-30.3-65-66.6.4-36.3 30.3-65.4 66.6-65z"/></svg><svg width="84" height="84" viewBox="-19.05 -19.05 160.05 160.05" id="src--images--raw-svgs--three115" y="454"><path d="M50.077 98.92l-2.78-1.025c.22-2.027.147-4.093-.234-6.146l2.684-1.238c1.677-.77 2.412-2.765 1.64-4.44l-1.568-3.4c-.773-1.677-2.764-2.414-4.438-1.642l-2.688 1.24c-1.313-1.628-2.837-3.024-4.52-4.177l1.027-2.775c.64-1.73-.25-3.66-1.98-4.3l-3.514-1.3c-1.677-.616-3.68.306-4.298 1.98l-1.025 2.778c-2.025-.216-4.09-.146-6.146.233L21 72.023c-.772-1.676-2.765-2.412-4.44-1.64l-3.402 1.564c-1.676.773-2.41 2.768-1.64 4.44l1.237 2.685c-1.624 1.315-3.023 2.84-4.174 4.523L5.808 82.57c-1.675-.624-3.68.3-4.302 1.98L.208 88.063c-.31.84-.273 1.75.1 2.56.376.813 1.044 1.43 1.88 1.736l2.78 1.028c-.22 2.024-.148 4.094.234 6.146l-2.687 1.237c-1.676.772-2.41 2.764-1.64 4.44l1.57 3.403c.77 1.675 2.762 2.41 4.437 1.638l2.687-1.234c1.312 1.626 2.835 3.02 4.52 4.174l-1.027 2.777c-.312.838-.276 1.745.1 2.56.37.81 1.04 1.43 1.88 1.742l3.514 1.295c.836.31 1.747.273 2.56-.1.812-.374 1.43-1.042 1.737-1.88l1.027-2.78c2.026.22 4.094.147 6.148-.23l1.235 2.684c.772 1.673 2.766 2.41 4.44 1.637l3.402-1.566c1.678-.77 2.413-2.762 1.64-4.438l-1.238-2.685c1.626-1.314 3.024-2.838 4.173-4.52l2.778 1.027c.84.31 1.75.272 2.563-.103.81-.373 1.427-1.04 1.737-1.878l1.297-3.515c.64-1.73-.247-3.657-1.977-4.298zM31.67 107.66c-1.755.81-3.616 1.216-5.534 1.216-5.152 0-9.872-3.022-12.025-7.697-3.05-6.63-.143-14.506 6.484-17.558 1.753-.81 3.614-1.217 5.53-1.217 5.15 0 9.874 3.02 12.028 7.697 3.052 6.63.143 14.507-6.483 17.56zM83.18 108.5l-1.548-.57c.123-1.128.082-2.28-.13-3.422l1.493-.69c.935-.427 1.344-1.537.913-2.472l-.872-1.894c-.432-.935-1.54-1.346-2.47-.914l-1.498.69c-.73-.906-1.58-1.686-2.515-2.326l.57-1.546c.355-.964-.14-2.037-1.103-2.396l-1.958-.722c-.934-.346-2.048.168-2.394 1.102l-.57 1.548c-1.127-.12-2.28-.08-3.422.13l-.688-1.493c-.432-.934-1.54-1.345-2.474-.914l-1.895.874c-.935.432-1.343 1.54-.914 2.473l.69 1.495c-.906.732-1.685 1.58-2.327 2.52l-1.545-.57c-.93-.348-2.05.164-2.394 1.1l-.723 1.958c-.17.468-.15.975.055 1.427.21.45.583.795 1.05.966l1.546.572c-.123 1.13-.083 2.278.13 3.423l-1.495.688c-.934.43-1.343 1.538-.913 2.472l.874 1.896c.43.932 1.538 1.343 2.47.913l1.496-.688c.73.904 1.58 1.682 2.52 2.322l-.572 1.545c-.174.468-.154.975.055 1.427.208.45.58.797 1.048.97l1.957.723c.467.172.972.152 1.425-.056s.797-.58.968-1.045l.57-1.55c1.13.123 2.28.084 3.424-.13l.688 1.496c.43.933 1.54 1.344 2.47.912l1.897-.872c.933-.432 1.34-1.538.91-2.472l-.687-1.496c.904-.73 1.684-1.578 2.323-2.516l1.547.57c.468.175.975.152 1.428-.056.45-.207.796-.58.968-1.047l.722-1.957c.356-.964-.14-2.04-1.1-2.396zm-10.25 4.87c-.978.448-2.013.677-3.08.677-2.87 0-5.498-1.684-6.697-4.287-1.7-3.69-.082-8.077 3.61-9.775.976-.45 2.012-.677 3.08-.677 2.866 0 5.495 1.682 6.695 4.285 1.698 3.69.08 8.075-3.61 9.777zM118.27 49.597l-4.674-1.725c.37-3.407.248-6.882-.393-10.337l4.514-2.077c2.816-1.294 4.052-4.647 2.754-7.468l-2.633-5.718c-1.298-2.82-4.646-4.06-7.46-2.76l-4.52 2.085c-2.208-2.735-4.77-5.082-7.596-7.02l1.724-4.668c1.072-2.912-.418-6.156-3.328-7.23L90.746.494c-2.817-1.036-6.185.515-7.227 3.33l-1.725 4.673c-3.405-.366-6.88-.245-10.333.39l-2.08-4.51C68.084 1.56 64.736.323 61.917 1.62l-5.72 2.634c-2.818 1.3-4.055 4.65-2.76 7.466l2.084 4.513c-2.73 2.21-5.082 4.773-7.02 7.603l-4.664-1.724c-2.815-1.05-6.188.504-7.23 3.324l-2.18 5.912c-.522 1.41-.46 2.938.165 4.304.635 1.364 1.76 2.403 3.164 2.917l4.673 1.73c-.37 3.402-.25 6.88.392 10.334l-4.515 2.078c-2.82 1.3-4.053 4.645-2.756 7.46l2.634 5.725c1.298 2.813 4.646 4.054 7.463 2.755l4.515-2.08c2.208 2.735 4.77 5.083 7.602 7.02l-1.726 4.668c-.524 1.407-.463 2.936.167 4.303.626 1.364 1.75 2.406 3.16 2.93l5.908 2.178c1.41.522 2.938.462 4.303-.163 1.367-.63 2.404-1.754 2.922-3.163l1.73-4.675c3.403.37 6.878.25 10.335-.39l2.076 4.512c1.297 2.814 4.647 4.056 7.465 2.755l5.72-2.634c2.82-1.3 4.054-4.646 2.755-7.464l-2.08-4.514c2.733-2.213 5.085-4.77 7.018-7.6l4.672 1.728c1.41.52 2.94.46 4.307-.17 1.362-.63 2.398-1.754 2.92-3.16l2.183-5.91c1.07-2.91-.422-6.154-3.33-7.227zM87.32 64.294c-2.95 1.357-6.078 2.046-9.3 2.046-8.664 0-16.598-5.082-20.22-12.945-5.133-11.146-.243-24.388 10.898-29.52 2.947-1.358 6.077-2.044 9.297-2.044 8.662 0 16.6 5.08 20.224 12.94 5.13 11.15.243 24.393-10.898 29.524z"/></svg><svg width="69.65" height="69.65" viewBox="-10 -10 69.65 69.65" id="src--images--raw-svgs--twitter" y="538"><path d="M24.826 0C11.136 0 0 11.137 0 24.826c0 13.688 11.137 24.826 24.826 24.826 13.688 0 24.826-11.138 24.826-24.826C49.652 11.136 38.516 0 24.826 0zM35.9 19.144c.012.246.018.494.018.742 0 7.55-5.746 16.255-16.26 16.255-3.226 0-6.23-.942-8.758-2.564.447.053.902.08 1.363.08 2.678 0 5.14-.914 7.097-2.446-2.5-.046-4.61-1.698-5.338-3.97.348.067.707.104 1.074.104.52 0 1.027-.068 1.506-.2-2.614-.523-4.583-2.832-4.583-5.602v-.072c.77.427 1.65.685 2.587.714-1.532-1.023-2.54-2.773-2.54-4.755 0-1.05.28-2.03.772-2.875 2.816 3.458 7.028 5.732 11.776 5.972-.098-.42-.147-.854-.147-1.303 0-3.155 2.557-5.714 5.712-5.714 1.644 0 3.127.694 4.17 1.804 1.304-.256 2.524-.73 3.63-1.387-.43 1.335-1.332 2.454-2.515 3.162 1.157-.14 2.26-.445 3.282-.9-.763 1.144-1.732 2.15-2.85 2.954z"/></svg><svg width="84" height="84" viewBox="-83.76 -83.76 703.59 703.59" id="src--images--raw-svgs--users6" y="608"><path d="M147.128 91.076c0-37.95 30.766-68.716 68.72-68.716 37.95 0 68.72 30.766 68.72 68.716s-30.77 68.715-68.72 68.715c-37.954.002-68.72-30.764-68.72-68.714zm101.745 115.53c.69-14.962 5.84-28.81 14.127-40.26-5.816-1.218-11.827-1.865-17.995-1.865H186.7c-6.15 0-12.152.643-17.938 1.846 8.82 12.232 14.094 27.17 14.18 43.343 10.72-5.897 23.02-9.254 36.085-9.254 10.598 0 20.687 2.208 29.846 6.19zm11.632 6.17c19.96 12.516 33.957 33.687 36.517 58.273 8.133 3.8 17.17 5.993 26.746 5.993 34.968 0 63.31-28.346 63.31-63.313 0-34.97-28.342-63.31-63.31-63.31-34.648 0-62.737 27.837-63.263 62.355zm-41.48 129.635c34.963 0 63.308-28.353 63.308-63.31 0-34.962-28.345-63.31-63.307-63.31-34.965 0-63.322 28.347-63.322 63.31 0 34.957 28.357 63.31 63.322 63.31zm26.857 4.31h-53.717c-44.697 0-81.07 36.37-81.07 81.072v65.703l.172 1.03 4.522 1.405c42.657 13.323 79.717 17.78 110.223 17.78 59.57 0 94.114-16.988 96.242-18.075l4.23-2.14h.45V427.79c0-44.7-36.35-81.07-81.053-81.07zm104.756-65.356h-53.314c-.58 21.332-9.683 40.542-24.08 54.35 39.73 11.815 68.8 48.657 68.8 92.178v20.245c52.63-1.938 82.964-16.846 84.962-17.85l4.232-2.153h.45V362.42c.005-44.692-36.364-81.056-81.05-81.056zm14.25-132.295c19.962 12.518 33.958 33.69 36.512 58.276 8.134 3.8 17.17 5.99 26.746 5.99 34.975 0 63.316-28.342 63.316-63.304 0-34.972-28.342-63.31-63.316-63.31-34.643-.005-62.73 27.838-63.257 62.347zm90.122 68.588h-53.303c-.58 21.332-9.682 40.542-24.08 54.35 39.73 11.81 68.8 48.657 68.8 92.178v20.245c52.625-1.933 82.965-16.84 84.963-17.85l4.226-2.146h.455V298.71c.007-44.686-36.362-81.052-81.06-81.052zm-347.073 59.386c12.386 0 23.903-3.618 33.67-9.777 3.106-20.24 13.958-37.932 29.454-49.975.066-1.188.175-2.36.175-3.56 0-34.972-28.35-63.312-63.298-63.312-34.977 0-63.316 28.34-63.316 63.31 0 34.974 28.34 63.314 63.317 63.314zm56.858 58.67c-14.33-13.742-23.404-32.847-24.072-54.055-1.97-.148-3.928-.296-5.943-.296H81.07c-44.704 0-81.07 36.364-81.07 81.06v65.71l.166 1.023 4.528 1.412c34.214 10.698 64.76 15.615 91.292 17.152v-19.837c.005-43.514 29.068-80.362 68.81-92.17z"/></svg><svg viewBox="-78.54 -78.54 659.75 659.75" width="84" height="84" id="src--images--raw-svgs--web58" y="692"><g fill="#010002"><path d="M83.155 234.108l19.35 72.003h28.473l36-111.908h-29.27l-21.355 73.34-18.724-73.34H69.047l-19.306 73.34-20.967-73.34H0l35.42 111.91h28.818M265.472 194.202h-28.56l-19.328 73.34-21.053-73.34h-28.774l35.484 111.91h28.84l18.94-72.004 19.39 72.003h28.432l36-111.908h-29.206l-21.463 73.34M473.392 194.202l-21.42 73.34-18.68-73.34h-28.624l-19.328 73.34-20.945-73.34h-28.818l35.505 111.91h28.797l18.938-72.004 19.328 72.003h28.516l36.002-111.908M251.32 35.764c-86.563 0-161.025 51.166-195.28 124.765h390.583C412.326 86.93 337.885 35.763 251.32 35.763zM251.32 466.9c86.586 0 160.962-51.144 195.28-124.765H56.085C90.338 415.735 164.758 466.9 251.32 466.9z"/></g></svg></svg>